<svg width="40" height="40" viewBox="0 0 40 40" fill="none" xmlns="http://www.w3.org/2000/svg">
<circle cx="20" cy="20" r="20" fill="#F29D52"/>
<path d="M20.096 15.1848C18.7929 15.1848 17.5732 15.546 16.534 16.1759V10H12V28.6457H16.534V28.0089C17.5732 28.6364 18.7929 29 20.096 29C23.9079 29 27 25.9063 27 22.0924C27 18.2762 23.9102 15.1848 20.096 15.1848ZM19.4271 24.8781C17.8301 24.8781 16.534 23.5814 16.534 21.9835C16.534 20.3857 17.8301 19.089 19.4271 19.089C21.0241 19.089 22.3202 20.3857 22.3202 21.9835C22.3202 23.5837 21.0241 24.8781 19.4271 24.8781Z" fill="white"/>
</svg>
