<svg width="40" height="40" viewBox="0 0 40 40" fill="none" xmlns="http://www.w3.org/2000/svg">
<circle cx="20" cy="20" r="20" fill="#F29D52"/>
<path d="M30.4666 15.1143C30.3535 14.6623 30.1231 14.2482 29.7987 13.9138C29.4743 13.5793 29.0673 13.3364 28.619 13.2096C26.9809 12.8096 20.4285 12.8096 20.4285 12.8096C20.4285 12.8096 13.8761 12.8096 12.238 13.2477C11.7897 13.3745 11.3828 13.6174 11.0584 13.9519C10.734 14.2863 10.5036 14.7004 10.3904 15.1524C10.0906 16.8149 9.94398 18.5013 9.95233 20.1905C9.94164 21.8925 10.0883 23.5918 10.3904 25.2667C10.5151 25.7047 10.7507 26.103 11.0744 26.4234C11.398 26.7437 11.7988 26.9751 12.238 27.0953C13.8761 27.5334 20.4285 27.5334 20.4285 27.5334C20.4285 27.5334 26.9809 27.5334 28.619 27.0953C29.0673 26.9684 29.4743 26.7255 29.7987 26.3911C30.1231 26.0566 30.3535 25.6425 30.4666 25.1905C30.7641 23.5406 30.9107 21.867 30.9047 20.1905C30.9154 18.4886 30.7687 16.7893 30.4666 15.1143Z" fill="white"/>
<path d="M18.2858 23.3047L23.762 20.1905L18.2858 17.0762V23.3047Z" fill="#F29D52"/>
</svg>
